<svg id="Capa_1" enable-background="new 0 0 512 512" height="512" viewBox="0 0 512 512" width="512" xmlns="http://www.w3.org/2000/svg"><g><path d="m448 375.969h-384v90.5h-18.875v30h421.75v-30h-18.875zm-297.5 60.25h-30v-30h30zm60.25 0h-30v-30h30zm60.25 0h-30v-30h30zm60.25 0h-30v-30h30zm60.25 0h-30v-30h30z"/><path d="m480 79.531c-17.673 0-32 14.327-32 32 0 8.63 3.422 16.455 8.975 22.211l-104.975 131.219-81.058-189.134c10.143-5.369 17.058-16.024 17.058-28.296 0-17.67-14.33-32-32-32s-32 14.33-32 32c0 12.272 6.915 22.927 17.058 28.296l-81.058 189.134-104.975-131.219c5.553-5.756 8.975-13.581 8.975-22.211 0-17.673-14.327-32-32-32s-32 14.327-32 32 14.327 32 32 32c1.624 0 3.218-.123 4.777-.356l25.349 202.794h387.748l25.349-202.794c1.559.233 3.153.356 4.777.356 17.673 0 32-14.327 32-32s-14.327-32-32-32z"/></g></svg>