<svg id="Layer_1" enable-background="new 0 0 509.901 509.901" height="512" viewBox="0 0 509.901 509.901" width="512" xmlns="http://www.w3.org/2000/svg"><g><path d="m254.951 441.161c-40.363-21.911-82.51-45.948-133.242-86.847-16.958-13.67-32.209-27.314-45.688-40.858 16.588 28.299 37.556 57.208 62.571 86.214 52.899 61.339 105.039 101.552 107.232 103.233l9.127 6.997 9.126-6.997c2.194-1.682 54.333-41.895 107.233-103.233 25.016-29.006 45.983-57.915 62.571-86.214-49.781 50.904-125.901 100.13-178.93 127.705z"/><path d="m391.657 103.925c-14.42 13.527-31.241 22.908-49.365 27.603 16.54 20.408 25.253 45.201 25.15 71.372 36.471-3.781 107.961-21.751 112.507-37.881.093-35.305-53.88-53.035-88.292-61.094z"/><path d="m142.459 202.9c-.102-26.155 8.599-50.951 25.149-71.372-18.123-4.695-34.944-14.076-49.364-27.603-34.522 8.085-88.386 25.824-88.292 61.094.046 2.647 10.59 15.77 58.931 27.855 16.072 4.018 34.11 7.376 53.576 10.026z"/><path d="m320.802 104.773c46.978-3.518 84.149-49.078 84.149-104.773h-60c-23.936 0-45.678 10.916-61.798 28.697 28.356 13.098 44.759 44.373 37.649 76.076z"/><path d="m189.099 104.773c-7.112-31.716 9.305-62.983 37.65-76.076-16.122-17.781-37.862-28.697-61.798-28.697h-60c0 55.695 37.171 101.255 84.148 104.773z"/><path d="m254.951 127.5c20.711 0 37.5-16.789 37.5-37.5-1.838-49.69-73.169-49.676-75 0 0 20.71 16.789 37.5 37.5 37.5z"/><path d="m38.12 207.394c30.096 80.285 141.954 158.963 216.831 199.659 75.035-40.782 186.772-119.469 216.831-199.66-95.232 43.741-339.768 43.127-433.662.001z"/></g></svg>