<?xml version="1.0" encoding="iso-8859-1"?>
<!-- Generator: Adobe Illustrator 17.1.0, SVG Export Plug-In . SVG Version: 6.00 Build 0)  -->
<!DOCTYPE svg PUBLIC "-//W3C//DTD SVG 1.1//EN" "http://www.w3.org/Graphics/SVG/1.1/DTD/svg11.dtd">
<svg version="1.1" id="Capa_1" xmlns="http://www.w3.org/2000/svg" xmlns:xlink="http://www.w3.org/1999/xlink" x="0px" y="0px"
	 viewBox="0 0 394.305 394.305" style="enable-background:new 0 0 394.305 394.305;" xml:space="preserve">
<path d="M344.479,385.166c0.037,2.411-0.895,4.735-2.586,6.453c-1.692,1.718-4.002,2.686-6.413,2.686H211.161c-4.971,0-9-4.029-9-9
	v-25.859c0-3.534,2.068-6.741,5.288-8.199c4.679-2.118,10.52-4.285,17.281-6.794c12.225-4.535,26.079-9.676,37.026-16.015
	c7.238-4.19,15.928-10.574,16.219-17.187c0.165-3.754-1.146-7.377-3.599-9.939c-1.971-2.06-4.424-3.193-6.908-3.193
	c-5.692,0-10.501,6.195-10.501,13.529c0,4.971-4.029,9-9,9s-9-4.029-9-9c0-17.386,12.785-31.529,28.501-31.529
	c7.442,0,14.514,3.106,19.912,8.748c5.831,6.093,8.957,14.541,8.577,23.177c-1.127,25.599-38.024,39.289-64.966,49.285
	c-3.994,1.481-7.65,2.839-10.831,4.099v10.878h106.18l-0.168-10.952l-22.31-8.312c-4.658-1.735-7.027-6.918-5.292-11.575
	c1.735-4.658,6.921-7.025,11.575-5.292l28.072,10.458c3.476,1.294,5.801,4.588,5.857,8.295L344.479,385.166z M111.048,226.916
	c4.971,0,9-4.029,9-9s-4.029-9-9-9c-16.048,0-29.104-13.057-29.104-29.105v-75.176C81.943,56.864,120.809,18,168.582,18
	c47.77,0,86.634,38.864,86.634,86.635v75.176c0,16.049-13.057,29.105-29.104,29.105c-4.971,0-9,4.029-9,9s4.029,9,9,9
	c25.974,0,47.104-21.132,47.104-47.105v-75.176C273.216,46.938,226.276,0,168.58,0C110.883,0,63.943,46.938,63.943,104.635v75.176
	C63.943,205.784,85.074,226.916,111.048,226.916z M137.795,121.637c-3.79,1.999-7.71,4.065-11.509,6.201
	c-7.951,4.471-15.577,9.747-17.523,18.02c-1.704,7.25,1.714,13.534,4.883,18.199c7.239,10.657,26.893,35.45,53.004,35.493
	c8.068-0.015,16.054-2.578,25.893-8.313c23.504-13.698,38.104-39.742,38.104-67.969c0-11.783-1.896-22.656-5.638-32.317
	c-1.794-4.635-7.006-6.94-11.643-5.143c-4.635,1.795-6.938,7.007-5.143,11.643c2.935,7.579,4.423,16.266,4.423,25.817
	c0,21.847-11.177,41.932-29.169,52.418c-6.943,4.047-12.144,5.855-16.829,5.864c-14.29-0.023-29.058-14.276-38.113-27.607
	c-1.642-2.417-2.071-3.596-2.184-4.033c0.388-0.606,2.064-2.619,8.756-6.381c3.587-2.017,7.397-4.026,11.083-5.969
	c20.512-10.814,41.723-21.998,45.4-44.241c3.29-19.9-3.794-31.984-10.316-38.617c-10.507-10.684-27.477-15.192-46.568-12.36
	c-4.917,0.728-8.312,5.305-7.584,10.222c0.729,4.917,5.308,8.313,10.223,7.583c13.333-1.973,24.668,0.64,31.095,7.177
	c5.229,5.316,7.043,13.075,5.392,23.061C171.612,103.808,155.185,112.468,137.795,121.637z M171.906,367.458h-28.531L74.749,281.5
	c25.28-6.608,67.802-21.453,80.2-48.601c2.065-4.521,0.074-9.86-4.447-11.926c-4.523-2.065-9.86-0.073-11.926,4.447
	c-9.313,20.393-49.682,35.216-81.461,41.725c-0.386,0.074-0.768,0.174-1.144,0.3c-1.794,0.598-3.299,1.726-4.37,3.169
	c-0.25,0.336-0.475,0.688-0.672,1.05c-0.963,1.758-1.346,3.846-0.952,5.962c0.073,0.397,0.174,0.791,0.302,1.179
	c0,0,0.001,0.001,0.001,0.002c0.001,0.003,0.002,0.006,0.003,0.01c0.365,1.104,0.932,2.101,1.648,2.953l80.026,100.238
	c0.095,0.12,0.192,0.238,0.293,0.354c0.824,0.95,1.808,1.688,2.88,2.204c1.094,0.528,2.31,0.843,3.595,0.887
	c0.108,0.004,0.216,0.006,0.324,0.006c0.023,0,0.048,0,0.071,0h32.785c4.971,0,9-4.029,9-9S176.877,367.458,171.906,367.458z
	 M235.134,272.167c3.554,0,6.921-2.119,8.341-5.614c1.871-4.604-0.345-9.854-4.95-11.726c-21.063-8.558-35.28-19.001-40.032-29.406
	c-2.065-4.521-7.403-6.514-11.926-4.447c-4.521,2.065-6.513,7.404-4.447,11.926c6.861,15.023,23.56,28.012,49.63,38.604
	C232.858,271.954,234.006,272.167,235.134,272.167z"/>
<g>
</g>
<g>
</g>
<g>
</g>
<g>
</g>
<g>
</g>
<g>
</g>
<g>
</g>
<g>
</g>
<g>
</g>
<g>
</g>
<g>
</g>
<g>
</g>
<g>
</g>
<g>
</g>
<g>
</g>
</svg>
